<svg width="29" height="35" viewBox="0 0 29 35" fill="none" xmlns="http://www.w3.org/2000/svg">
<path d="M14.1818 0C6.34157 0 0 6.34664 0 14.1936C0 20.7202 4.38463 26.201 10.3692 27.8655C10.4869 27.8999 10.5869 27.9779 10.6484 28.0839L14.1818 34.1912L17.7152 28.0839C17.7767 27.9779 17.8767 27.8999 17.9943 27.8655C23.9772 26.1994 28.3635 20.7183 28.3635 14.1936C28.3635 6.34574 22.0221 0 14.1817 0H14.1818ZM14.1818 4.2134C19.7124 4.2134 24.2111 8.70731 24.2111 14.2427C24.2111 19.778 19.7126 24.2719 14.1818 24.2719C8.65104 24.2719 4.15255 19.778 4.15255 14.2427C4.15255 8.70731 8.65104 4.2134 14.1818 4.2134V4.2134ZM11.5713 6.99384C11.3816 7.01823 11.2312 7.1654 11.203 7.35457C11.1748 7.54375 11.2756 7.72859 11.4499 7.80718C11.7897 7.97413 11.9805 8.1438 12.0814 8.26847C12.1822 8.39341 12.2041 8.46415 12.2028 8.57202C12.199 8.78775 12.0136 9.16177 11.7534 9.5678C11.4932 9.97382 11.1672 10.4126 11.1463 10.9885C11.1358 11.2764 11.223 11.5859 11.4255 11.8507C11.6279 12.1155 11.9198 12.3494 12.3239 12.5548H12.3242C12.4255 12.6063 12.5432 12.6155 12.6513 12.5803C12.7597 12.545 12.8494 12.4681 12.9009 12.3667C12.9524 12.2653 12.9616 12.1474 12.9261 12.0393C12.8909 11.9312 12.8139 11.8414 12.7126 11.7899C12.383 11.6222 12.1998 11.4642 12.1055 11.3406C12.0109 11.217 11.9922 11.1357 11.9962 11.0248C12.0044 10.8031 12.2087 10.437 12.4697 10.0291C12.731 9.62144 13.0573 9.16289 13.0646 8.58423C13.0684 8.29478 12.9592 7.98283 12.7489 7.72209C12.5388 7.46136 12.2385 7.24481 11.826 7.04208L11.8263 7.04235C11.7626 7.00902 11.6916 6.99248 11.6198 6.99384C11.6035 6.99275 11.5875 6.99275 11.5713 6.99384L11.5713 6.99384ZM13.8783 7.72236C13.7194 7.7435 13.5858 7.85164 13.5322 8.0026C13.4782 8.15356 13.5135 8.32187 13.6232 8.43868C13.8926 8.74169 13.9056 8.88805 13.8783 9.05798C13.8512 9.22791 13.7262 9.45259 13.5625 9.72579C13.3988 9.99898 13.1899 10.3367 13.1739 10.7701C13.1579 11.2034 13.3647 11.6639 13.8173 12.1057H13.8175C13.8945 12.1992 14.0078 12.2556 14.129 12.261C14.2501 12.2661 14.3677 12.2195 14.4528 12.1331C14.5377 12.0463 14.5816 11.9279 14.574 11.8067C14.5664 11.6859 14.5076 11.5737 14.4125 11.4986C14.0669 11.1614 14.03 10.9603 14.036 10.7945C14.0422 10.6286 14.1355 10.4346 14.291 10.1752C14.4463 9.91609 14.6501 9.61254 14.716 9.20384C14.7819 8.79513 14.6534 8.30325 14.2666 7.86822L14.2669 7.86795C14.1788 7.76686 14.0485 7.71292 13.9146 7.7224C13.9024 7.72186 13.8902 7.72186 13.878 7.7224L13.8783 7.72236ZM8.5358 13.4654C8.33985 13.5063 8.19837 13.6778 8.19593 13.8781C8.19593 13.8781 8.18509 14.6305 8.24445 15.5536C8.30407 16.4767 8.41953 17.5597 8.76644 18.3585C9.17379 19.2965 9.99687 20.154 10.624 20.7746L10.6243 20.7749C10.7053 20.854 10.8146 20.8977 10.9278 20.8963H14.8255H14.8252C14.9385 20.8977 15.0477 20.854 15.1288 20.7749C15.6998 20.2104 16.4308 19.4525 16.8649 18.6138C16.9029 18.61 17.0761 18.594 17.3262 18.5531C17.6024 18.5081 17.9173 18.4512 18.1884 18.3346C18.8001 18.0712 19.3955 17.6655 19.7546 17.1811C19.9693 16.8919 20.1939 16.5312 20.2766 16.1006C20.3595 15.6699 20.263 15.1534 19.8879 14.7405C19.6573 14.4869 19.3619 14.4064 19.0624 14.34C18.7627 14.2733 18.4377 14.2432 18.1396 14.2307C17.9124 14.2212 17.7311 14.2272 17.5569 14.2307V13.8787L17.5571 13.8781C17.5493 13.6488 17.3617 13.4667 17.1322 13.4654H8.6203C8.59211 13.4626 8.56366 13.4626 8.53547 13.4654L8.5358 13.4654ZM17.5451 15.0801C17.7126 15.0766 17.8907 15.0712 18.1037 15.0801C18.3723 15.0915 18.6615 15.1164 18.8807 15.1652C19.1003 15.214 19.2458 15.3108 19.2572 15.3229C19.467 15.5536 19.4827 15.7162 19.4393 15.9422C19.396 16.1683 19.2499 16.4352 19.0751 16.6708C18.8721 16.9442 18.3379 17.3342 17.8487 17.5451C17.7443 17.5901 17.4527 17.6619 17.2052 17.7029C17.3882 17.0207 17.4765 16.2423 17.521 15.5536C17.5318 15.3839 17.5391 15.2346 17.5451 15.0801H17.5451Z" fill="#E09446"/>
</svg>
