<svg width="70" height="62" viewBox="0 0 70 62" fill="none" xmlns="http://www.w3.org/2000/svg">
<g filter="url(#filter0_d_87_333)">
<path d="M34.5 1C26.6598 1 20.3182 7.34664 20.3182 15.1936C20.3182 21.7202 24.7029 27.201 30.6875 28.8655C30.8051 28.8999 30.9051 28.9779 30.9666 29.0839L34.5 35.1912L38.0334 29.0839C38.0949 28.9779 38.1949 28.8999 38.3125 28.8655C44.2954 27.1994 48.6818 21.7183 48.6818 15.1936C48.6818 7.34574 42.3403 1 34.5 1H34.5ZM34.5 5.2134C40.0306 5.2134 44.5293 9.70731 44.5293 15.2427C44.5293 20.778 40.0308 25.2719 34.5 25.2719C28.9693 25.2719 24.4708 20.778 24.4708 15.2427C24.4708 9.70731 28.9693 5.2134 34.5 5.2134V5.2134ZM31.8895 7.99384C31.6998 8.01823 31.5494 8.1654 31.5212 8.35457C31.493 8.54375 31.5938 8.72859 31.7681 8.80718C32.108 8.97413 32.2988 9.1438 32.3996 9.26847C32.5004 9.39341 32.5224 9.46415 32.521 9.57202C32.5172 9.78775 32.3318 10.1618 32.0717 10.5678C31.8115 10.9738 31.4854 11.4126 31.4646 11.9885C31.454 12.2764 31.5413 12.5859 31.7437 12.8507C31.9462 13.1155 32.2381 13.3494 32.6421 13.5548H32.6424C32.7438 13.6063 32.8614 13.6155 32.9695 13.5803C33.078 13.545 33.1677 13.4681 33.2192 13.3667C33.2707 13.2653 33.2799 13.1474 33.2444 13.0393C33.2091 12.9312 33.1322 12.8414 33.0308 12.7899C32.7012 12.6222 32.518 12.4642 32.4237 12.3406C32.3291 12.217 32.3104 12.1357 32.3145 12.0248C32.3226 11.8031 32.527 11.437 32.788 11.0291C33.0492 10.6214 33.3755 10.1629 33.3829 9.58423C33.3867 9.29478 33.2774 8.98283 33.0671 8.72209C32.8571 8.46136 32.5568 8.24481 32.1443 8.04208L32.1445 8.04235C32.0808 8.00902 32.0098 7.99248 31.938 7.99384C31.9217 7.99275 31.9058 7.99275 31.8895 7.99384L31.8895 7.99384ZM34.1965 8.72236C34.0377 8.7435 33.9041 8.85164 33.8504 9.0026C33.7965 9.15356 33.8317 9.32187 33.9415 9.43868C34.2109 9.74169 34.2239 9.88805 34.1965 10.058C34.1694 10.2279 34.0445 10.4526 33.8808 10.7258C33.7171 10.999 33.5081 11.3367 33.4921 11.7701C33.4761 12.2034 33.6829 12.6639 34.1355 13.1057H34.1358C34.2128 13.1992 34.326 13.2556 34.4472 13.261C34.5683 13.2661 34.686 13.2195 34.7711 13.1331C34.8559 13.0463 34.8998 12.9279 34.8922 12.8067C34.8846 12.6859 34.8258 12.5737 34.7307 12.4986C34.3851 12.1614 34.3483 11.9603 34.3542 11.7945C34.3605 11.6286 34.4537 11.4346 34.6093 11.1752C34.7646 10.9161 34.9684 10.6125 35.0342 10.2038C35.1001 9.79513 34.9716 9.30325 34.5849 8.86822L34.5851 8.86795C34.4971 8.76686 34.3667 8.71292 34.2328 8.7224C34.2206 8.72186 34.2084 8.72186 34.1962 8.7224L34.1965 8.72236ZM28.854 14.4654C28.6581 14.5063 28.5166 14.6778 28.5142 14.8781C28.5142 14.8781 28.5033 15.6305 28.5627 16.5536C28.6223 17.4767 28.7378 18.5597 29.0847 19.3585C29.492 20.2965 30.3151 21.154 30.9423 21.7746L30.9425 21.7749C31.0236 21.854 31.1328 21.8977 31.2461 21.8963H35.1437H35.1434C35.2567 21.8977 35.366 21.854 35.447 21.7749C36.0181 21.2104 36.749 20.4525 37.1832 19.6138C37.2211 19.61 37.3943 19.594 37.6444 19.5531C37.9206 19.5081 38.2355 19.4512 38.5066 19.3346C39.1183 19.0712 39.7137 18.6655 40.0728 18.1811C40.2875 17.8919 40.5122 17.5312 40.5948 17.1006C40.6778 16.6699 40.5813 16.1534 40.2062 15.7405C39.9755 15.4869 39.6801 15.4064 39.3807 15.34C39.0809 15.2733 38.7559 15.2432 38.4578 15.2307C38.2307 15.2212 38.0494 15.2272 37.8751 15.2307V14.8787L37.8754 14.8781C37.8675 14.6488 37.68 14.4667 37.4504 14.4654H28.9385C28.9104 14.4626 28.8819 14.4626 28.8537 14.4654L28.854 14.4654ZM37.8634 16.0801C38.0309 16.0766 38.2089 16.0712 38.422 16.0801C38.6905 16.0915 38.9797 16.1164 39.199 16.1652C39.4185 16.214 39.564 16.3108 39.5754 16.3229C39.7852 16.5536 39.8009 16.7162 39.7576 16.9422C39.7142 17.1683 39.5681 17.4352 39.3933 17.6708C39.1903 17.9442 38.6561 18.3342 38.1669 18.5451C38.0625 18.5901 37.7709 18.6619 37.5235 18.7029C37.7064 18.0207 37.7948 17.2423 37.8392 16.5536C37.8501 16.3839 37.8574 16.2346 37.8633 16.0801H37.8634Z" fill="#E09446"/>
<path d="M14.1787 47.3271C14.1787 47.6051 14.1331 47.8649 14.042 48.1064C13.9508 48.348 13.8255 48.569 13.666 48.7695C13.5065 48.9655 13.3197 49.141 13.1055 49.2959C12.8958 49.4508 12.668 49.5807 12.4219 49.6855C12.1803 49.7904 11.9297 49.8701 11.6699 49.9248C11.4102 49.9749 11.1549 50 10.9043 50H5.11426V40.1562H10.4053C10.6377 40.1562 10.8815 40.1745 11.1367 40.2109C11.3919 40.2428 11.6403 40.2952 11.8818 40.3682C12.1279 40.4411 12.3604 40.5368 12.5791 40.6553C12.8024 40.7738 12.9961 40.9196 13.1602 41.0928C13.3288 41.2614 13.4609 41.4574 13.5566 41.6807C13.6569 41.904 13.707 42.1592 13.707 42.4463C13.707 42.7197 13.6523 42.9681 13.543 43.1914C13.4336 43.4147 13.2855 43.6152 13.0986 43.793C12.9163 43.9661 12.7044 44.1211 12.4629 44.2578C12.2259 44.39 11.9753 44.5062 11.7109 44.6064C12.0436 44.6976 12.3581 44.8184 12.6543 44.9688C12.9551 45.1191 13.2171 45.3037 13.4404 45.5225C13.6683 45.7412 13.8483 46.001 13.9805 46.3018C14.1126 46.598 14.1787 46.9398 14.1787 47.3271ZM10.9521 42.6855C10.9521 42.1296 10.804 41.724 10.5078 41.4688C10.2161 41.2135 9.79915 41.0859 9.25684 41.0859H7.82812V44.2783H9.02441C9.27051 44.2783 9.50977 44.2487 9.74219 44.1895C9.97461 44.1257 10.1797 44.0299 10.3574 43.9023C10.5397 43.7702 10.6833 43.6038 10.7881 43.4033C10.8975 43.2028 10.9521 42.9635 10.9521 42.6855ZM11.4307 47.1562C11.4307 46.8874 11.3965 46.6367 11.3281 46.4043C11.2598 46.1673 11.1549 45.9645 11.0137 45.7959C10.8724 45.6227 10.6947 45.4883 10.4805 45.3926C10.2708 45.2923 10.0225 45.2422 9.73535 45.2422H7.82812V49.043H9.49609C9.77409 49.043 10.0316 48.9974 10.2686 48.9062C10.5055 48.8151 10.7106 48.6875 10.8838 48.5234C11.057 48.3594 11.1914 48.1611 11.2871 47.9287C11.3828 47.6963 11.4307 47.4388 11.4307 47.1562ZM25.7377 45.29V45.4199C25.7286 45.8027 25.6876 46.1992 25.6147 46.6094C25.5463 47.0195 25.4483 47.4297 25.3207 47.8398C25.1931 48.25 25.0405 48.6556 24.8627 49.0566C24.685 49.4577 24.4845 49.8405 24.2612 50.2051C24.0424 50.5742 23.8054 50.9183 23.5502 51.2373C23.295 51.5609 23.0261 51.8457 22.7436 52.0918L21.725 51.5039C21.8845 51.235 22.0281 50.9411 22.1557 50.6221C22.2879 50.3076 22.4064 49.9772 22.5112 49.6309C22.616 49.2845 22.7049 48.929 22.7778 48.5645C22.8552 48.1999 22.919 47.8376 22.9692 47.4775C23.0193 47.1175 23.0558 46.7643 23.0786 46.418C23.1059 46.0671 23.1196 45.7344 23.1196 45.4199C23.1196 45.1738 23.1173 44.8958 23.1127 44.5859C23.1127 44.2715 23.0945 43.9525 23.058 43.6289C23.0261 43.3053 22.9715 42.9909 22.894 42.6855C22.8165 42.3757 22.7003 42.0999 22.5454 41.8584C22.395 41.6169 22.199 41.4232 21.9575 41.2773C21.7205 41.1315 21.4243 41.0586 21.0688 41.0586C20.7543 41.0586 20.4832 41.1133 20.2553 41.2227C20.032 41.3275 19.8406 41.471 19.6811 41.6533C19.5261 41.8311 19.4008 42.0384 19.3051 42.2754C19.214 42.5124 19.1411 42.763 19.0864 43.0273C19.0362 43.2871 19.0021 43.5514 18.9838 43.8203C18.9702 44.0846 18.9633 44.3353 18.9633 44.5723V46.4795H21.9096V47.6074H18.9633V50H16.2495V44.9961C16.2495 44.2806 16.3634 43.6152 16.5913 43C16.8191 42.3848 17.1404 41.8516 17.5551 41.4004C17.9744 40.9447 18.4757 40.5892 19.059 40.334C19.6469 40.0742 20.3009 39.9443 21.0209 39.9443C21.5086 39.9443 21.9643 40.015 22.3881 40.1562C22.8165 40.293 23.2062 40.4844 23.5571 40.7305C23.908 40.972 24.2202 41.2614 24.4936 41.5986C24.7716 41.9313 25.0017 42.2959 25.184 42.6924C25.3709 43.0889 25.5121 43.5081 25.6079 43.9502C25.7036 44.3923 25.7468 44.8389 25.7377 45.29ZM30.7821 50H28.0682V40.1562H30.7821V44.8457C31.6207 44.2031 32.4022 43.4899 33.1268 42.7061C33.856 41.9222 34.4826 41.07 35.0067 40.1494H36.8593C36.3762 40.9743 35.8225 41.7445 35.1981 42.46C34.5738 43.1755 33.8947 43.8385 33.161 44.4492L37.0917 50H34.2616L31.3016 45.8164C31.2151 45.8757 31.1285 45.9326 31.0419 45.9873C30.9598 46.042 30.8733 46.0967 30.7821 46.1514V50ZM41.4593 50H38.7454V40.1562H41.4593V50ZM45.5125 50H44.2547V40.1562H46.0183L51.9998 46.917V40.1562H53.2507V50H51.4871L45.5125 43.2461V50ZM64.9807 42.5967L63.8117 43.0889C63.7206 42.7926 63.5975 42.5215 63.4426 42.2754C63.2922 42.0293 63.1099 41.8197 62.8957 41.6465C62.6861 41.4688 62.4468 41.332 62.1779 41.2363C61.909 41.1361 61.6151 41.0859 61.2961 41.0859C60.9543 41.0859 60.6398 41.1429 60.3527 41.2568C60.0702 41.3708 59.815 41.5257 59.5871 41.7217C59.3638 41.9131 59.1678 42.1387 58.9992 42.3984C58.8306 42.6582 58.6893 42.9362 58.5754 43.2324C58.466 43.5241 58.3817 43.8271 58.3225 44.1416C58.2678 44.4561 58.2404 44.7637 58.2404 45.0645C58.2404 45.543 58.2951 46.0192 58.4045 46.4932C58.5184 46.9671 58.6962 47.3932 58.9377 47.7715C59.1838 48.1497 59.5005 48.4574 59.8879 48.6943C60.2753 48.9268 60.7447 49.043 61.2961 49.043C61.5969 49.043 61.8316 48.9769 62.0002 48.8447C62.1688 48.708 62.2531 48.471 62.2531 48.1338V45.1123H64.967V50H64.1809L63.7023 49.2275C63.2648 49.5602 62.7818 49.8063 62.2531 49.9658C61.729 50.1208 61.1936 50.1982 60.6467 50.1982C60.1636 50.1982 59.6988 50.139 59.2521 50.0205C58.8101 49.902 58.3977 49.7334 58.0148 49.5146C57.632 49.2959 57.2834 49.0316 56.9689 48.7217C56.659 48.4118 56.3924 48.0677 56.1691 47.6895C55.9504 47.3112 55.7795 46.901 55.6564 46.459C55.538 46.0124 55.4787 45.5475 55.4787 45.0645C55.4787 44.5814 55.538 44.1188 55.6564 43.6768C55.7795 43.2301 55.9504 42.8177 56.1691 42.4395C56.3924 42.0566 56.659 41.7103 56.9689 41.4004C57.2834 41.0905 57.632 40.8262 58.0148 40.6074C58.3977 40.3887 58.8101 40.2201 59.2521 40.1016C59.6988 39.9831 60.1636 39.9238 60.6467 39.9238C61.1115 39.9238 61.565 39.9785 62.007 40.0879C62.4536 40.1973 62.8684 40.3636 63.2512 40.5869C63.634 40.8057 63.9735 41.0837 64.2697 41.4209C64.5705 41.7536 64.8075 42.1455 64.9807 42.5967Z" fill="black"/>
</g>
<defs>
<filter id="filter0_d_87_333" x="0.114258" y="0" width="69.8665" height="61.0918" filterUnits="userSpaceOnUse" color-interpolation-filters="sRGB">
<feFlood flood-opacity="0" result="BackgroundImageFix"/>
<feColorMatrix in="SourceAlpha" type="matrix" values="0 0 0 0 0 0 0 0 0 0 0 0 0 0 0 0 0 0 127 0" result="hardAlpha"/>
<feOffset dy="4"/>
<feGaussianBlur stdDeviation="2.5"/>
<feComposite in2="hardAlpha" operator="out"/>
<feColorMatrix type="matrix" values="0 0 0 0 0 0 0 0 0 0 0 0 0 0 0 0 0 0 0.25 0"/>
<feBlend mode="normal" in2="BackgroundImageFix" result="effect1_dropShadow_87_333"/>
<feBlend mode="normal" in="SourceGraphic" in2="effect1_dropShadow_87_333" result="shape"/>
</filter>
</defs>
</svg>
