<svg width="94" height="16" viewBox="0 0 94 16" fill="none" xmlns="http://www.w3.org/2000/svg">
<path d="M12.829 15.0629C12.8967 15.0575 12.9586 15.0237 12.9993 14.9701C13.0399 14.9166 13.0555 14.8484 13.0419 14.7827L11.9554 9.56824L15.9355 5.9817H15.9353C16.0046 5.91995 16.0307 5.8237 16.0018 5.736C15.9731 5.64829 15.8949 5.58539 15.8019 5.57537L10.4462 4.98131L8.22216 0.136812L8.22233 0.136976C8.18373 0.0535408 8.09948 0 8.00668 0C7.91389 0 7.82963 0.0535408 7.79103 0.136976L5.56703 4.98147L0.21126 5.57553V5.57537C0.118465 5.58539 0.0402854 5.64829 0.011543 5.736C-0.017199 5.8237 0.00875092 5.91995 0.0780592 5.9817L4.0581 9.56824L2.97164 14.7827H2.97147C2.95209 14.8729 2.98806 14.966 3.06329 15.0204C3.13867 15.0749 3.23935 15.0805 3.32049 15.035L8.00689 12.4039L12.6933 15.035C12.7348 15.0575 12.7823 15.0674 12.8295 15.0629H12.829ZM12.4716 14.3708L8.12286 11.9304C8.05077 11.8901 7.9624 11.8901 7.8903 11.9304L3.54153 14.3708L4.54864 9.53473H4.54848C4.56556 9.45326 4.53748 9.36901 4.47474 9.31349L0.78128 5.98188L5.75149 5.43268C5.83427 5.42414 5.90654 5.37306 5.94152 5.29817L8.00667 0.79803L10.0718 5.29817C10.1068 5.37306 10.1791 5.42398 10.2619 5.43268L15.2321 5.98188L11.5386 9.31349C11.4759 9.36901 11.4478 9.45326 11.4649 9.53473L12.472 14.3708H12.4716Z" fill="#EAB665"/>
<path d="M32.3256 15.0629C32.3933 15.0575 32.4552 15.0237 32.4959 14.9701C32.5365 14.9166 32.5521 14.8484 32.5385 14.7827L31.452 9.56824L35.432 5.9817H35.4319C35.5012 5.91995 35.5273 5.8237 35.4984 5.736C35.4697 5.64829 35.3915 5.58539 35.2985 5.57537L29.9427 4.98131L27.7187 0.136812L27.7189 0.136976C27.6803 0.0535408 27.5961 0 27.5033 0C27.4105 0 27.3262 0.0535408 27.2876 0.136976L25.0636 4.98147L19.7078 5.57553V5.57537C19.615 5.58539 19.5369 5.64829 19.5081 5.736C19.4794 5.8237 19.5053 5.91995 19.5746 5.9817L23.5547 9.56824L22.4682 14.7827H22.4681C22.4487 14.8729 22.4846 14.966 22.5599 15.0204C22.6353 15.0749 22.7359 15.0805 22.8171 15.035L27.5035 12.4039L32.1899 15.035C32.2314 15.0575 32.2789 15.0674 32.326 15.0629H32.3256ZM31.9682 14.3708L27.6194 11.9304C27.5473 11.8901 27.459 11.8901 27.3869 11.9304L23.0381 14.3708L24.0452 9.53473H24.0451C24.0621 9.45326 24.0341 9.36901 23.9713 9.31349L20.2779 5.98188L25.2481 5.43268C25.3309 5.42414 25.4031 5.37306 25.4381 5.29817L27.5033 0.79803L29.5684 5.29817C29.6034 5.37306 29.6757 5.42398 29.7584 5.43268L34.7286 5.98188L31.0352 9.31349C30.9725 9.36901 30.9444 9.45326 30.9614 9.53473L31.9686 14.3708H31.9682Z" fill="#EAB665"/>
<path d="M51.8222 15.0629C51.8899 15.0575 51.9518 15.0237 51.9925 14.9701C52.0331 14.9166 52.0487 14.8484 52.0351 14.7827L50.9486 9.56824L54.9286 5.9817H54.9285C54.9978 5.91995 55.0239 5.8237 54.995 5.736C54.9662 5.64829 54.8881 5.58539 54.7951 5.57537L49.4393 4.98131L47.2153 0.136812L47.2155 0.136976C47.1769 0.0535408 47.0926 0 46.9998 0C46.9071 0 46.8228 0.0535408 46.7842 0.136976L44.5602 4.98147L39.2044 5.57553V5.57537C39.1116 5.58539 39.0334 5.64829 39.0047 5.736C38.976 5.8237 39.0019 5.91995 39.0712 5.9817L43.0513 9.56824L41.9648 14.7827H41.9646C41.9453 14.8729 41.9812 14.966 42.0564 15.0204C42.1318 15.0749 42.2325 15.0805 42.3137 15.035L47.0001 12.4039L51.6865 15.035C51.728 15.0575 51.7755 15.0674 51.8226 15.0629H51.8222ZM51.4648 14.3708L47.116 11.9304C47.0439 11.8901 46.9556 11.8901 46.8835 11.9304L42.5347 14.3708L43.5418 9.53473H43.5416C43.5587 9.45326 43.5306 9.36901 43.4679 9.31349L39.7744 5.98188L44.7447 5.43268C44.8274 5.42414 44.8997 5.37306 44.9347 5.29817L46.9998 0.79803L49.065 5.29817C49.1 5.37306 49.1722 5.42398 49.255 5.43268L54.2252 5.98188L50.5318 9.31349C50.469 9.36901 50.4409 9.45326 50.458 9.53473L51.4651 14.3708H51.4648Z" fill="#EAB665"/>
<path d="M71.319 15.0629C71.3867 15.0575 71.4486 15.0237 71.4893 14.9701C71.5299 14.9166 71.5455 14.8484 71.5319 14.7827L70.4454 9.56824L74.4255 5.9817H74.4253C74.4946 5.91995 74.5207 5.8237 74.4918 5.736C74.4631 5.64829 74.3849 5.58539 74.2919 5.57537L68.9362 4.98131L66.7122 0.136812L66.7123 0.136976C66.6737 0.0535408 66.5895 0 66.4967 0C66.4039 0 66.3196 0.0535408 66.281 0.136976L64.057 4.98147L58.7012 5.57553V5.57537C58.6085 5.58539 58.5303 5.64829 58.5015 5.736C58.4728 5.8237 58.4987 5.91995 58.568 5.9817L62.5481 9.56824L61.4616 14.7827H61.4615C61.4421 14.8729 61.4781 14.966 61.5533 15.0204C61.6287 15.0749 61.7293 15.0805 61.8105 15.035L66.4969 12.4039L71.1833 15.035C71.2248 15.0575 71.2723 15.0674 71.3194 15.0629H71.319ZM70.9616 14.3708L66.6129 11.9304C66.5408 11.8901 66.4524 11.8901 66.3803 11.9304L62.0315 14.3708L63.0386 9.53473H63.0385C63.0556 9.45326 63.0275 9.36901 62.9647 9.31349L59.2713 5.98188L64.2415 5.43268C64.3243 5.42414 64.3965 5.37306 64.4315 5.29817L66.4967 0.79803L68.5618 5.29817C68.5968 5.37306 68.6691 5.42398 68.7518 5.43268L73.7221 5.98188L70.0286 9.31349C69.9659 9.36901 69.9378 9.45326 69.9549 9.53473L70.962 14.3708H70.9616Z" fill="#EAB665"/>
<path d="M90.8156 15.0629C90.8833 15.0575 90.9452 15.0237 90.9859 14.9701C91.0265 14.9166 91.0421 14.8484 91.0285 14.7827L89.942 9.56824L93.922 5.9817H93.9219C93.9912 5.91995 94.0173 5.8237 93.9884 5.736C93.9596 5.64829 93.8815 5.58539 93.7885 5.57537L88.4327 4.98131L86.2087 0.136812L86.2089 0.136976C86.1703 0.0535408 86.086 0 85.9933 0C85.9005 0 85.8162 0.0535408 85.7776 0.136976L83.5536 4.98147L78.1978 5.57553V5.57537C78.105 5.58539 78.0269 5.64829 77.9981 5.736C77.9694 5.8237 77.9953 5.91995 78.0646 5.9817L82.0447 9.56824L80.9582 14.7827H80.958C80.9387 14.8729 80.9746 14.966 81.0499 15.0204C81.1252 15.0749 81.2259 15.0805 81.3071 15.035L85.9935 12.4039L90.6799 15.035C90.7214 15.0575 90.7689 15.0674 90.816 15.0629H90.8156ZM90.4582 14.3708L86.1094 11.9304C86.0373 11.8901 85.949 11.8901 85.8769 11.9304L81.5281 14.3708L82.5352 9.53473H82.5351C82.5521 9.45326 82.524 9.36901 82.4613 9.31349L78.7679 5.98188L83.7381 5.43268C83.8208 5.42414 83.8931 5.37306 83.9281 5.29817L85.9932 0.79803L88.0584 5.29817C88.0934 5.37306 88.1656 5.42398 88.2484 5.43268L93.2186 5.98188L89.5252 9.31349C89.4624 9.36901 89.4344 9.45326 89.4514 9.53473L90.4586 14.3708H90.4582Z" fill="#EAB665"/>
</svg>
